<?xml version="1.0" encoding="UTF-8" standalone="no"?>
<svg
   viewBox="0 0 37 38"
   fill="none"
   xmlns="http://www.w3.org/2000/svg">
  <path
     style="color:#000000;fill:#5f82ff;stroke-linecap:round;stroke-linejoin:round;-inkscape-stroke:none"
     d="M 19.126953,0 C 8.5789778,0 0,8.6498866 0,19.25 a 2,2 0 0 0 2,2 2,2 0 0 0 2,-2 C 4,10.796312 10.756167,4 19.126953,4 c 1.542756,0 3.026368,0.232159 4.423828,0.6621094 a 2,2 0 0 0 2.5,-1.3242188 2,2 0 0 0 -1.324219,-2.49999997 C 22.954026,0.29254202 21.070994,0 19.126953,0 Z"
     id="path2" />
  <path
     fill-rule="evenodd"
     clip-rule="evenodd"
     d="M15.4414 22.9624C17.4773 25.0127 20.7778 25.0127 22.8135 22.9624C24.8491 20.9122 33.2764 6.50015 32.5317 5.75015C31.7869 5.00015 17.4773 13.4875 15.4414 15.5378C13.4058 17.5881 13.4058 20.9122 15.4414 22.9624ZM19.1272 20.7501C19.95 20.7501 20.6167 20.0786 20.6167 19.2501C20.6167 18.4217 19.95 17.7501 19.1272 17.7501C18.3047 17.7501 17.6379 18.4217 17.6379 19.2501C17.6379 20.0786 18.3047 20.7501 19.1272 20.7501Z"
     fill="#5F82FF"
     id="path4" />
  <path
     id="ellipse6"
     style="fill:#5f82ff"
     d="m 5.7234699,28.25 a 1.48936,1.5 0 0 1 -1.48936,1.5 1.48936,1.5 0 0 1 -1.48936,-1.5 1.48936,1.5 0 0 1 1.48936,-1.5 1.48936,1.5 0 0 1 1.48936,1.5 z" />
  <path
     id="ellipse8"
     style="fill:#5f82ff"
     d="m 11.68076,34.25 a 1.48936,1.5 0 0 1 -1.48936,1.5 1.48936,1.5 0 0 1 -1.4893604,-1.5 1.48936,1.5 0 0 1 1.4893604,-1.5 1.48936,1.5 0 0 1 1.48936,1.5 z" />
  <path
     id="ellipse10"
     style="fill:#5f82ff"
     d="m 20.616861,36.5 a 1.48936,1.5 0 0 1 -1.48936,1.5 1.48936,1.5 0 0 1 -1.48936,-1.5 1.48936,1.5 0 0 1 1.48936,-1.5 1.48936,1.5 0 0 1 1.48936,1.5 z" />
  <path
     id="ellipse12"
     style="fill:#5f82ff"
     d="m 29.55306,34.25 a 1.48936,1.5 0 0 1 -1.48936,1.5 1.48936,1.5 0 0 1 -1.48936,-1.5 1.48936,1.5 0 0 1 1.48936,-1.5 1.48936,1.5 0 0 1 1.48936,1.5 z" />
  <path
     id="ellipse14"
     style="fill:#5f82ff"
     d="m 34.76596,28.25 a 1.48936,1.5 0 0 1 -1.48936,1.5 1.48936,1.5 0 0 1 -1.48936,-1.5 1.48936,1.5 0 0 1 1.48936,-1.5 1.48936,1.5 0 0 1 1.48936,1.5 z" />
  <path
     id="ellipse16"
     style="fill:#5f82ff"
     d="m 36.999862,19.25 a 1.48936,1.5 0 0 1 -1.48936,1.5 1.48936,1.5 0 0 1 -1.48936,-1.5 1.48936,1.5 0 0 1 1.48936,-1.5 1.48936,1.5 0 0 1 1.48936,1.5 z" />
</svg>
