<svg width="67" height="68" viewBox="0 0 67 68" fill="none" xmlns="http://www.w3.org/2000/svg">
<path d="M2 33.625C2 16.159 16.2412 2 33.8085 2C37.0463 2 40.1712 2.48098 43.1147 3.375" stroke="white" stroke-width="4" />
<path fill-rule="evenodd" clip-rule="evenodd" d="M26.9628 40.4308C30.7434 44.1896 36.873 44.1896 40.6536 40.4308C44.4342 36.672 60.0846 10.25 58.7017 8.875C57.3187 7.5 30.7434 23.0602 26.9628 26.819C23.1822 30.5778 23.1822 36.672 26.9628 40.4308ZM33.8081 36.375C35.3356 36.375 36.574 35.1438 36.574 33.625C36.574 32.1062 35.3356 30.875 33.8081 30.875C32.2805 30.875 31.0421 32.1062 31.0421 33.625C31.0421 35.1438 32.2805 36.375 33.8081 36.375Z" fill="white"/>
<ellipse cx="6.14889" cy="50.125" rx="2.76596" ry="2.75" fill="white"/>
<ellipse cx="17.2127" cy="61.125" rx="2.76596" ry="2.75" fill="white"/>
<ellipse cx="33.8086" cy="65.25" rx="2.76596" ry="2.75" fill="white"/>
<ellipse cx="50.4043" cy="61.125" rx="2.76596" ry="2.75" fill="white"/>
<ellipse cx="60.085" cy="50.125" rx="2.76596" ry="2.75" fill="white"/>
<ellipse cx="64.2341" cy="33.625" rx="2.76596" ry="2.75" fill="white"/>
</svg>
